<svg xmlns="http://www.w3.org/2000/svg" width="800" height="800" fill="none" viewBox="0 0 800 800"><rect width="800" height="800" fill="#fff"/><path fill="#000" d="M400 150C261.929 150 150 261.929 150 400C150 538.071 261.929 650 400 650C538.071 650 650 538.071 650 400C650 261.929 538.071 150 400 150ZM400 600C289.543 600 200 510.457 200 400C200 289.543 289.543 200 400 200C510.457 200 600 289.543 600 400C600 510.457 510.457 600 400 600Z"/><path fill="#000" d="M400 250C317.157 250 250 317.157 250 400C250 482.843 317.157 550 400 550C482.843 550 550 482.843 550 400C550 317.157 482.843 250 400 250ZM400 500C344.772 500 300 455.228 300 400C300 344.772 344.772 300 400 300C455.228 300 500 344.772 500 400C500 455.228 455.228 500 400 500Z"/><circle cx="400" cy="400" r="50" fill="#000"/></svg>